# xmcd
#
# Track frame offsets: 
#        150
#        18420
#        49077
#        61977
#        77937
#        100927
#        128475
#        140312
#        159027
#        187410
#        202997
#        221010
#        235852
#        258852
#
# Disc length: 3645 seconds
#
# Revision: 0
# Processed by: cddbd v1.5.2PL0 Copyright (c) Steve Scherf et al.
# Submitted via: ExactAudioCopy v0.95b4
#
DISCID=bb0e3b0e
DTITLE=Ultra Fast Wide Blues - Ultra Fast Wide Blues
DYEAR=1997
DGENRE=Blues
TTITLE0=Sweet Home Chicago
TTITLE1=Standing Around Crying
TTITLE2=Born Under A Bad Sign
TTITLE3=Hey Bartender
TTITLE4=She Moves Me
TTITLE5=The Thrill is Gone
TTITLE6=Hoochie Coochie Man
TTITLE7=Tell Me
TTITLE8=Spoonful
TTITLE9=Messin' With The Kid
TTITLE10=Pray For Rain
TTITLE11=Tore Down
TTITLE12=Stand By Me
TTITLE13=Everyday I Got The Blues
EXTD=
EXTT0=
EXTT1=
EXTT2=
EXTT3=
EXTT4=
EXTT5=
EXTT6=
EXTT7=
EXTT8=
EXTT9=
EXTT10=
EXTT11=
EXTT12=
EXTT13=
PLAYORDER=
